<?xml version="1.0" encoding="UTF-8" standalone="no"?>
<svg
   xmlns:dc="http://purl.org/dc/elements/1.1/"
   xmlns:cc="http://creativecommons.org/ns#"
   xmlns:rdf="http://www.w3.org/1999/02/22-rdf-syntax-ns#"
   xmlns:svg="http://www.w3.org/2000/svg"
   xmlns="http://www.w3.org/2000/svg"
   viewBox="0 0 232.29333 58.416"
   height="58.416"
   width="232.29333"
   xml:space="preserve"
   id="svg2"
   version="1.1"><metadata
     id="metadata8"><rdf:RDF><cc:Work
         rdf:about=""><dc:format>image/svg+xml</dc:format><dc:type
           rdf:resource="http://purl.org/dc/dcmitype/StillImage" /></cc:Work></rdf:RDF></metadata><defs
     id="defs6"><clipPath
       id="clipPath26"
       clipPathUnits="userSpaceOnUse"><path
         id="path24"
         d="M 0,43.812 H 174.22 V 0 H 0 Z" /></clipPath><clipPath
       id="clipPath84"
       clipPathUnits="userSpaceOnUse"><path
         id="path82"
         d="M 0,0.087 H 39.65 V 43.028 H 0 Z" /></clipPath></defs><g
     transform="matrix(1.3333333,0,0,-1.3333333,0,58.416)"
     id="g10"><g
       transform="translate(53.2871,0.1865)"
       id="g12"><path
         id="path14"
         style="fill:#000000;fill-opacity:1;fill-rule:nonzero;stroke:none"
         d="m 0,0 h -4.008 v 0.6 h 1.087 V 8.847 H -4.008 V 9.446 H 0 V 8.847 H -1.074 V 0.6 L 0,0.6 Z" /></g><g
       transform="translate(68.9058,0.0283)"
       id="g16"><path
         id="path18"
         style="fill:#000000;fill-opacity:1;fill-rule:nonzero;stroke:none"
         d="M 0,0 H -1.001 L -5.984,7.015 V 0.758 h 1.131 v -0.6 h -3.234 v 0.6 H -6.9 V 8.273 L -7.357,9.005 H -8.389 V 9.604 H -5.54 L -0.901,3.006 V 9.005 H -2.032 V 9.604 H 1.203 V 9.005 L 0,9.005 Z" /></g><g
       id="g20"><g
         clip-path="url(#clipPath26)"
         id="g22"><g
           transform="translate(78.7275,0.0566)"
           id="g28"><path
             id="path30"
             style="fill:#000000;fill-opacity:1;fill-rule:nonzero;stroke:none"
             d="M 0,0 H -0.787 V 2.576 H 0 V 1.517 C 0.644,1.002 1.13,0.815 1.833,0.815 2.72,0.815 3.365,1.346 3.365,2.09 3.365,2.734 2.949,3.192 1.617,4.052 0.214,4.939 0.042,5.083 -0.328,5.513 -0.687,5.929 -0.873,6.5 -0.873,7.13 c 0,1.573 1.16,2.619 2.907,2.619 0.557,0 1.001,-0.085 1.545,-0.314 V 9.864 H 4.353 V 7.416 H 3.579 V 8.403 C 2.977,8.79 2.591,8.935 2.061,8.935 1.317,8.935 0.745,8.403 0.745,7.73 0.745,7.159 1.074,6.8 2.449,5.929 3.106,5.499 3.522,5.239 3.68,5.124 4.009,4.896 4.31,4.581 4.552,4.193 4.825,3.752 4.953,3.277 4.953,2.72 4.953,1.087 3.765,-0.057 2.09,-0.057 1.26,-0.057 0.659,0.116 0,0.501 V 0" /></g><g
           transform="translate(97.439,0.1865)"
           id="g32"><path
             id="path34"
             style="fill:#000000;fill-opacity:1;fill-rule:nonzero;stroke:none"
             d="m 0,0 h -4.609 v 0.6 h 1.388 V 8.602 H -5.697 V 7.414 h -0.787 v 2.434 h 0.787 V 9.446 H 1.088 V 9.848 H 1.875 V 7.414 H 1.088 V 8.602 H -1.375 V 0.6 L 0,0.6 Z" /></g><g
           transform="translate(109.5015,0.1865)"
           id="g36"><path
             id="path38"
             style="fill:#000000;fill-opacity:1;fill-rule:nonzero;stroke:none"
             d="M 0,0 H -4.008 V 0.6 H -2.92 V 8.847 H -4.008 V 9.446 H 0 V 8.847 H -1.074 V 0.6 L 0,0.6 Z" /></g><g
           transform="translate(121.894,0.1865)"
           id="g40"><path
             id="path42"
             style="fill:#000000;fill-opacity:1;fill-rule:nonzero;stroke:none"
             d="m 0,0 h -4.609 v 0.6 h 1.388 V 8.602 H -5.697 V 7.414 h -0.789 v 2.434 h 0.789 V 9.446 H 1.088 V 9.848 H 1.877 V 7.414 H 1.088 V 8.602 H -1.375 V 0.6 L 0,0.6 Z" /></g><g
           transform="translate(140.6636,9.0332)"
           id="g44"><path
             id="path46"
             style="fill:#000000;fill-opacity:1;fill-rule:nonzero;stroke:none"
             d="m 0,0 h -1.203 v -5.383 c 0,-1.619 -0.559,-2.635 -1.776,-3.206 -0.628,-0.286 -1.33,-0.444 -2.076,-0.444 -2.318,0 -3.822,1.275 -3.822,3.249 V 0 h -1.088 v 0.6 h 4.008 V 0 h -1.074 v -5.34 c 0,-1.447 0.26,-2.104 0.99,-2.491 0.342,-0.17 0.758,-0.272 1.187,-0.272 1.717,0 2.719,1.016 2.719,2.763 v 5.326 H -3.322 V 0.6 L 0,0.6 V 0" /></g><g
           transform="translate(153.8472,0.1865)"
           id="g48"><path
             id="path50"
             style="fill:#000000;fill-opacity:1;fill-rule:nonzero;stroke:none"
             d="m 0,0 h -4.609 v 0.6 h 1.388 V 8.602 H -5.697 V 7.414 h -0.787 v 2.434 h 0.787 V 9.446 H 1.09 V 9.848 H 1.877 V 7.414 H 1.09 V 8.602 H -1.375 V 0.6 L 0,0.6 Z" /></g><g
           transform="translate(169.4683,0.1865)"
           id="g52"><path
             id="path54"
             style="fill:#000000;fill-opacity:1;fill-rule:nonzero;stroke:none"
             d="m 0,0 h -6.814 v 0.6 h 1.087 v 8.247 h -1.087 v 0.599 h 5.896 v 0.402 h 0.773 V 7.572 h -0.757 v 1.03 H -3.881 V 5.225 h 2.291 v 0.973 l 0.774,0.014 V 3.393 L -1.59,3.377 V 4.38 H -3.881 V 0.846 h 3.108 v 1.057 l 0.773,0 z" /></g><g
           transform="translate(54.1274,18.5332)"
           id="g56"><path
             id="path58"
             style="fill:#000000;fill-opacity:1;fill-rule:nonzero;stroke:none"
             d="m 0,0 h 4.451 c 3.339,0 5.366,1.987 5.366,5.246 0,3.299 -2.266,5.684 -5.366,5.684 H 0 V 0 m 0,12.719 h 4.053 c 2.583,0 4.414,2.106 4.414,5.048 0,2.782 -1.711,4.849 -4.055,4.849 H 0 Z M -6.479,-1.788 v 1.471 h 2.981 v 23.291 h -2.981 v 1.471 H 5.604 c 3.617,0 6.558,-2.903 6.558,-6.52 0,-2.981 -2.623,-5.604 -5.843,-5.883 1.63,-0.198 2.226,-0.357 3.22,-0.834 2.464,-1.153 3.895,-3.458 3.895,-6.161 0,-3.896 -3.02,-6.835 -7.074,-6.835 z" /></g><g
           transform="translate(78.0947,30.3374)"
           id="g60"><path
             id="path62"
             style="fill:#000000;fill-opacity:1;fill-rule:nonzero;stroke:none"
             d="m 0,0 h 3.815 c 3.02,0 5.127,2.226 5.127,5.486 0,3.418 -1.867,5.326 -5.206,5.326 H 0 V 0 m 16.495,-13.592 h -3.379 c -2.345,0 -2.782,0.237 -4.095,2.344 L 3.1,-1.828 H 0 v -10.294 h 2.98 v -1.47 h -9.459 v 1.47 h 2.98 v 23.291 h -2.98 v 1.472 h 11.05 c 3.854,0 6.04,-1.074 7.235,-3.538 0.515,-1.074 0.792,-2.267 0.792,-3.538 0,-3.856 -2.146,-6.32 -5.961,-6.876 l 5.725,-8.824 c 0.953,-1.471 1.588,-1.948 2.584,-1.948 h 1.549 z" /></g><g
           transform="translate(99.5972,29.8604)"
           id="g64"><path
             id="path66"
             style="fill:#000000;fill-opacity:1;fill-rule:nonzero;stroke:none"
             d="m 0,0 c 0,-6.717 3.736,-11.567 8.902,-11.567 5.088,0 8.786,4.89 8.786,11.567 0,6.678 -3.698,11.526 -8.745,11.526 C 3.736,11.526 0,6.758 0,0 m -3.936,-0.039 c 0,7.473 5.803,13.633 12.838,13.633 6.916,0 12.721,-6.2 12.721,-13.594 0,-7.393 -5.805,-13.632 -12.721,-13.632 -6.996,0 -12.838,6.199 -12.838,13.593" /></g><g
           transform="translate(137.6538,27.2773)"
           id="g68"><path
             id="path70"
             style="fill:#000000;fill-opacity:1;fill-rule:nonzero;stroke:none"
             d="M 0,0 -4.252,11.168 -8.744,0 H 0 M 9.34,-10.532 H 0.279 v 1.47 h 3.178 l -2.781,7.154 -10.174,0.04 -2.904,-7.154 h 3.298 v -1.51 h -7.589 v 1.51 h 2.066 l 10.334,25.557 h 1.43 L 7.074,-9.022 H 9.34 Z" /></g><g
           transform="translate(155.9761,18.7314)"
           id="g72"><path
             id="path74"
             style="fill:#000000;fill-opacity:1;fill-rule:nonzero;stroke:none"
             d="m 0,0 h 4.77 c 5.445,0 9.578,4.81 9.539,11.129 0,6.121 -4.211,11.09 -9.459,11.09 H 0 V 0 m -6.479,-1.986 v 1.47 h 2.981 v 23.291 h -2.981 v 1.472 H 5.248 c 7.154,0 12.996,-5.884 12.996,-13.078 0,-7.353 -5.724,-13.155 -13.037,-13.155 z" /></g><path
           id="path76"
           style="fill:#00609f;fill-opacity:1;fill-rule:nonzero;stroke:none"
           d="M 0,43.028 H 39.65 V 0.087 H 0 Z" /></g></g><g
       id="g78"><g
         clip-path="url(#clipPath84)"
         id="g80"><g
           transform="translate(117.9644,12.6816)"
           id="g86"><path
             id="path88"
             style="fill:#ffffff;fill-opacity:1;fill-rule:nonzero;stroke:none"
             d="m 0,0 c -2.027,1.474 -4.111,2.865 -6.251,4.17 2.146,1.319 4.238,2.722 6.27,4.211 C 2.037,7.061 3.998,5.67 5.896,4.208 3.996,2.729 2.022,1.334 0,0 m -53.268,-15.791 c -19.428,0 -37.461,5.614 -52.376,15.205 2.182,1.395 4.436,2.694 6.744,3.914 13.48,-7.958 29.047,-12.505 45.632,-12.505 16.605,0 32.187,4.557 45.675,12.534 2.31,-1.219 4.561,-2.526 6.743,-3.92 -14.922,-9.607 -32.964,-15.228 -52.418,-15.228 m -59.128,19.979 c 1.896,1.462 3.867,2.838 5.882,4.159 2.034,-1.489 4.126,-2.893 6.275,-4.211 -2.138,-1.306 -4.223,-2.698 -6.249,-4.171 -2.029,1.336 -4.002,2.742 -5.908,4.223 m -5.641,4.763 c 1.689,1.534 3.433,3.013 5.241,4.424 1.787,-1.561 3.63,-3.054 5.527,-4.473 -1.886,-1.402 -3.719,-2.878 -5.498,-4.42 -1.817,1.427 -3.574,2.918 -5.27,4.469 m 11.483,8.879 c 2.032,-1.489 4.123,-2.893 6.27,-4.212 -2.137,-1.307 -4.22,-2.699 -6.244,-4.173 -2.028,1.336 -3.998,2.744 -5.903,4.225 1.894,1.462 3.863,2.84 5.877,4.16 m 53.331,15.74 c 19.448,0 37.504,-5.596 52.458,-15.168 -2.186,-1.41 -4.443,-2.729 -6.758,-3.963 -13.51,7.943 -29.097,12.479 -45.7,12.479 -16.624,0 -32.226,-4.546 -45.745,-12.509 -2.318,1.234 -4.573,2.559 -6.761,3.969 14.964,9.589 33.032,15.192 52.506,15.192 M -14.998,8.878 c 2.549,1.206 5.036,2.529 7.456,3.962 2.307,-1.22 4.555,-2.526 6.735,-3.92 C -2.995,7.509 -5.255,6.191 -7.572,4.959 -9.984,6.375 -12.46,7.686 -14.998,8.878 M -89.19,7.804 c 11.051,-4.847 23.187,-7.528 35.922,-7.528 12.747,0 24.893,2.684 35.95,7.54 2.811,-1.103 5.553,-2.331 8.217,-3.677 -13.136,-6.684 -28.177,-10.475 -44.167,-10.475 -15.969,0 -30.998,3.791 -44.126,10.468 2.66,1.345 5.398,2.57 8.204,3.672 m -2.309,1.049 c -2.536,-1.194 -5.01,-2.506 -7.419,-3.924 -2.32,1.233 -4.578,2.557 -6.768,3.967 2.179,1.395 4.43,2.695 6.736,3.916 2.419,-1.431 4.903,-2.756 7.451,-3.959 m 71.385,0.008 c -10.3,-3.698 -21.469,-5.742 -33.154,-5.742 -11.665,0 -22.824,2.027 -33.111,5.719 10.306,3.681 21.474,5.713 33.156,5.713 11.66,0 22.817,-2.017 33.109,-5.69 m -33.109,8.548 c -12.752,0 -24.902,-2.675 -35.974,-7.513 -2.824,1.115 -5.579,2.356 -8.254,3.718 13.164,6.669 28.224,10.447 44.228,10.447 15.981,0 31.023,-3.78 44.176,-10.439 -2.668,-1.359 -5.411,-2.602 -8.228,-3.715 -11.066,4.83 -23.207,7.502 -35.948,7.502 M 5.933,13.691 c -1.9,-1.478 -3.871,-2.875 -5.893,-4.21 -2.025,1.473 -4.108,2.865 -6.246,4.17 2.144,1.32 4.236,2.724 6.266,4.214 2.016,-1.321 3.976,-2.711 5.873,-4.174 M 11.552,8.989 C 9.859,7.438 8.102,5.951 6.288,4.524 4.505,6.067 2.668,7.544 0.777,8.947 c 1.893,1.418 3.732,2.908 5.515,4.467 1.812,-1.412 3.566,-2.89 5.26,-4.425 M 12.789,-1.658 C 10.816,0.402 8.753,2.368 6.611,4.238 8.324,5.749 9.983,7.323 11.587,8.957 11.99,8.591 12.393,8.226 12.789,7.854 12.413,8.246 12.03,8.632 11.647,9.018 11.8,9.173 11.955,9.325 12.105,9.481 11.946,9.333 11.778,9.195 11.618,9.048 c -1.604,1.619 -3.264,3.178 -4.974,4.674 1.884,1.664 3.71,3.401 5.461,5.214 -1.849,-1.722 -3.787,-3.358 -5.784,-4.93 -1.781,1.543 -3.616,3.02 -5.506,4.424 4.013,3.008 7.79,6.338 11.29,9.96 C 8.396,24.935 4.362,21.792 0.08,18.963 -15.036,29.97 -33.406,36.429 -53.223,36.429 c -19.838,0 -38.222,-6.472 -53.346,-17.503 -4.419,2.916 -8.559,6.181 -12.368,9.76 3.597,-3.755 7.488,-7.2 11.631,-10.301 -1.884,-1.404 -3.716,-2.879 -5.494,-4.422 -2.128,1.672 -4.178,3.427 -6.137,5.268 1.857,-1.938 3.796,-3.79 5.804,-5.559 -1.707,-1.495 -3.361,-3.052 -4.961,-4.668 -0.281,0.257 -0.565,0.512 -0.843,0.773 0.264,-0.276 0.534,-0.544 0.8,-0.816 -0.266,-0.27 -0.536,-0.536 -0.8,-0.81 0.277,0.259 0.571,0.502 0.852,0.758 1.606,-1.636 3.268,-3.209 4.983,-4.72 -2.017,-1.765 -3.967,-3.613 -5.835,-5.547 1.971,1.837 4.036,3.583 6.173,5.249 1.789,-1.56 3.633,-3.053 5.532,-4.471 -4.167,-3.096 -8.082,-6.537 -11.705,-10.289 3.837,3.577 8.017,6.823 12.463,9.732 15.073,-11.022 33.416,-17.495 53.206,-17.495 19.811,0 38.166,6.485 53.247,17.529 4.584,-2.996 8.874,-6.363 12.81,-10.065 C 9.07,-7.282 5.039,-3.725 0.74,-0.536 2.634,0.881 4.475,2.371 6.259,3.93 8.527,2.163 10.708,0.299 12.789,-1.658" /></g></g></g></g></svg>