<?xml version="1.0" encoding="UTF-8" standalone="no"?>
<svg
   xmlns:dc="http://purl.org/dc/elements/1.1/"
   xmlns:cc="http://creativecommons.org/ns#"
   xmlns:rdf="http://www.w3.org/1999/02/22-rdf-syntax-ns#"
   xmlns:svg="http://www.w3.org/2000/svg"
   xmlns="http://www.w3.org/2000/svg"
   xmlns:sodipodi="http://sodipodi.sourceforge.net/DTD/sodipodi-0.dtd"
   xmlns:inkscape="http://www.inkscape.org/namespaces/inkscape"
   viewBox="0 0 204 220.93225"
   height="220.93225"
   width="204"
   xml:space="preserve"
   id="svg2"
   version="1.1"
   inkscape:version="0.91 r13725"
   sodipodi:docname="BroadInstLogoforDigitalRGB_square_only.svg"><sodipodi:namedview
     pagecolor="#ffffff"
     bordercolor="#666666"
     borderopacity="1"
     objecttolerance="10"
     gridtolerance="10"
     guidetolerance="10"
     inkscape:pageopacity="0"
     inkscape:pageshadow="2"
     inkscape:window-width="640"
     inkscape:window-height="480"
     id="namedview45"
     showgrid="false"
     fit-margin-top="0"
     fit-margin-left="0"
     fit-margin-right="0"
     fit-margin-bottom="0"
     inkscape:zoom="1.2656411"
     inkscape:cx="116.14667"
     inkscape:cy="29.092003"
     inkscape:current-layer="svg2" /><metadata
     id="metadata8"><rdf:RDF><cc:Work
         rdf:about=""><dc:format>image/svg+xml</dc:format><dc:type
           rdf:resource="http://purl.org/dc/dcmitype/StillImage" /><dc:title></dc:title></cc:Work></rdf:RDF></metadata><defs
     id="defs6"><clipPath
       id="clipPath26"
       clipPathUnits="userSpaceOnUse"><path
         id="path24"
         d="m 0,43.812 174.22,0 L 174.22,0 0,0 Z"
         inkscape:connector-curvature="0" /></clipPath><clipPath
       id="clipPath84"
       clipPathUnits="userSpaceOnUse"><path
         id="path82"
         d="m 0,0.087 39.65,0 0,42.941 -39.65,0 z"
         inkscape:connector-curvature="0" /></clipPath></defs><g
     id="g3459"
     transform="matrix(3.8587643,0,0,3.8587643,0,-4.0337005)"><path
       id="path76"
       style="fill:#00609f;fill-opacity:1;fill-rule:nonzero;stroke:none"
       d="m 0,1.0453348 52.866665,0 0,57.2546652 L 0,58.3 Z"
       inkscape:connector-curvature="0" /><g
       transform="matrix(1.3333333,0,0,-1.3333333,0,58.416)"
       id="g78"><g
         clip-path="url(#clipPath84)"
         id="g80"><g
           transform="translate(117.9644,12.6816)"
           id="g86"><path
             id="path88"
             style="fill:#ffffff;fill-opacity:1;fill-rule:nonzero;stroke:none"
             d="m 0,0 c -2.027,1.474 -4.111,2.865 -6.251,4.17 2.146,1.319 4.238,2.722 6.27,4.211 C 2.037,7.061 3.998,5.67 5.896,4.208 3.996,2.729 2.022,1.334 0,0 m -53.268,-15.791 c -19.428,0 -37.461,5.614 -52.376,15.205 2.182,1.395 4.436,2.694 6.744,3.914 13.48,-7.958 29.047,-12.505 45.632,-12.505 16.605,0 32.187,4.557 45.675,12.534 2.31,-1.219 4.561,-2.526 6.743,-3.92 -14.922,-9.607 -32.964,-15.228 -52.418,-15.228 m -59.128,19.979 c 1.896,1.462 3.867,2.838 5.882,4.159 2.034,-1.489 4.126,-2.893 6.275,-4.211 -2.138,-1.306 -4.223,-2.698 -6.249,-4.171 -2.029,1.336 -4.002,2.742 -5.908,4.223 m -5.641,4.763 c 1.689,1.534 3.433,3.013 5.241,4.424 1.787,-1.561 3.63,-3.054 5.527,-4.473 -1.886,-1.402 -3.719,-2.878 -5.498,-4.42 -1.817,1.427 -3.574,2.918 -5.27,4.469 m 11.483,8.879 c 2.032,-1.489 4.123,-2.893 6.27,-4.212 -2.137,-1.307 -4.22,-2.699 -6.244,-4.173 -2.028,1.336 -3.998,2.744 -5.903,4.225 1.894,1.462 3.863,2.84 5.877,4.16 m 53.331,15.74 c 19.448,0 37.504,-5.596 52.458,-15.168 -2.186,-1.41 -4.443,-2.729 -6.758,-3.963 -13.51,7.943 -29.097,12.479 -45.7,12.479 -16.624,0 -32.226,-4.546 -45.745,-12.509 -2.318,1.234 -4.573,2.559 -6.761,3.969 14.964,9.589 33.032,15.192 52.506,15.192 M -14.998,8.878 c 2.549,1.206 5.036,2.529 7.456,3.962 2.307,-1.22 4.555,-2.526 6.735,-3.92 C -2.995,7.509 -5.255,6.191 -7.572,4.959 -9.984,6.375 -12.46,7.686 -14.998,8.878 M -89.19,7.804 c 11.051,-4.847 23.187,-7.528 35.922,-7.528 12.747,0 24.893,2.684 35.95,7.54 2.811,-1.103 5.553,-2.331 8.217,-3.677 -13.136,-6.684 -28.177,-10.475 -44.167,-10.475 -15.969,0 -30.998,3.791 -44.126,10.468 2.66,1.345 5.398,2.57 8.204,3.672 m -2.309,1.049 c -2.536,-1.194 -5.01,-2.506 -7.419,-3.924 -2.32,1.233 -4.578,2.557 -6.768,3.967 2.179,1.395 4.43,2.695 6.736,3.916 2.419,-1.431 4.903,-2.756 7.451,-3.959 m 71.385,0.008 c -10.3,-3.698 -21.469,-5.742 -33.154,-5.742 -11.665,0 -22.824,2.027 -33.111,5.719 10.306,3.681 21.474,5.713 33.156,5.713 11.66,0 22.817,-2.017 33.109,-5.69 m -33.109,8.548 c -12.752,0 -24.902,-2.675 -35.974,-7.513 -2.824,1.115 -5.579,2.356 -8.254,3.718 13.164,6.669 28.224,10.447 44.228,10.447 15.981,0 31.023,-3.78 44.176,-10.439 -2.668,-1.359 -5.411,-2.602 -8.228,-3.715 -11.066,4.83 -23.207,7.502 -35.948,7.502 M 5.933,13.691 c -1.9,-1.478 -3.871,-2.875 -5.893,-4.21 -2.025,1.473 -4.108,2.865 -6.246,4.17 2.144,1.32 4.236,2.724 6.266,4.214 2.016,-1.321 3.976,-2.711 5.873,-4.174 M 11.552,8.989 C 9.859,7.438 8.102,5.951 6.288,4.524 4.505,6.067 2.668,7.544 0.777,8.947 c 1.893,1.418 3.732,2.908 5.515,4.467 1.812,-1.412 3.566,-2.89 5.26,-4.425 M 12.789,-1.658 C 10.816,0.402 8.753,2.368 6.611,4.238 8.324,5.749 9.983,7.323 11.587,8.957 11.99,8.591 12.393,8.226 12.789,7.854 12.413,8.246 12.03,8.632 11.647,9.018 11.8,9.173 11.955,9.325 12.105,9.481 11.946,9.333 11.778,9.195 11.618,9.048 c -1.604,1.619 -3.264,3.178 -4.974,4.674 1.884,1.664 3.71,3.401 5.461,5.214 -1.849,-1.722 -3.787,-3.358 -5.784,-4.93 -1.781,1.543 -3.616,3.02 -5.506,4.424 4.013,3.008 7.79,6.338 11.29,9.96 C 8.396,24.935 4.362,21.792 0.08,18.963 -15.036,29.97 -33.406,36.429 -53.223,36.429 c -19.838,0 -38.222,-6.472 -53.346,-17.503 -4.419,2.916 -8.559,6.181 -12.368,9.76 3.597,-3.755 7.488,-7.2 11.631,-10.301 -1.884,-1.404 -3.716,-2.879 -5.494,-4.422 -2.128,1.672 -4.178,3.427 -6.137,5.268 1.857,-1.938 3.796,-3.79 5.804,-5.559 -1.707,-1.495 -3.361,-3.052 -4.961,-4.668 -0.281,0.257 -0.565,0.512 -0.843,0.773 0.264,-0.276 0.534,-0.544 0.8,-0.816 -0.266,-0.27 -0.536,-0.536 -0.8,-0.81 0.277,0.259 0.571,0.502 0.852,0.758 1.606,-1.636 3.268,-3.209 4.983,-4.72 -2.017,-1.765 -3.967,-3.613 -5.835,-5.547 1.971,1.837 4.036,3.583 6.173,5.249 1.789,-1.56 3.633,-3.053 5.532,-4.471 -4.167,-3.096 -8.082,-6.537 -11.705,-10.289 3.837,3.577 8.017,6.823 12.463,9.732 15.073,-11.022 33.416,-17.495 53.206,-17.495 19.811,0 38.166,6.485 53.247,17.529 4.584,-2.996 8.874,-6.363 12.81,-10.065 C 9.07,-7.282 5.039,-3.725 0.74,-0.536 2.634,0.881 4.475,2.371 6.259,3.93 8.527,2.163 10.708,0.299 12.789,-1.658"
             inkscape:connector-curvature="0" /></g></g></g></g></svg>